REM DIRINDEX 1\2,1\3,1\4,1\5
REM DIRNAME cjc093,folder01,folder02,folder03,folder04
TITLE ""
FILE "Round-04-082-083.mp3" MP3
  TRACK 01 AUDIO
    TITLE "0:"
    INDEX 01 00:00:00
  TRACK 02 AUDIO
    TITLE "2:cjc093_0960"
    INDEX 01 00:00:01
  TRACK 03 AUDIO
    TITLE "0:"
    INDEX 01 00:01:07
  TRACK 04 AUDIO
    TITLE "3:cjc093_0961"
    INDEX 01 00:01:44
  TRACK 05 AUDIO
    TITLE "0:"
    INDEX 01 00:03:15
  TRACK 06 AUDIO
    TITLE "4:cjc093_0962"
    INDEX 01 00:03:64
  TRACK 07 AUDIO
    TITLE "0:"
    INDEX 01 00:06:24
  TRACK 08 AUDIO
    TITLE "2:cjc093_0963"
    INDEX 01 00:07:29
  TRACK 09 AUDIO
    TITLE "0:"
    INDEX 01 00:10:10
  TRACK 10 AUDIO
    TITLE "4:cjc093_0964"
    INDEX 01 00:10:53
  TRACK 11 AUDIO
    TITLE "0:"
    INDEX 01 00:14:35
  TRACK 12 AUDIO
    TITLE "2:cjc093_0965"
    INDEX 01 00:15:46
  TRACK 13 AUDIO
    TITLE "0:"
    INDEX 01 00:16:49
  TRACK 14 AUDIO
    TITLE "3:cjc093_0966"
    INDEX 01 00:17:10
  TRACK 15 AUDIO
    TITLE "0:"
    INDEX 01 00:18:68
  TRACK 16 AUDIO
    TITLE "4:cjc093_0967"
    INDEX 01 00:19:20
  TRACK 17 AUDIO
    TITLE "0:"
    INDEX 01 00:22:60
  TRACK 18 AUDIO
    TITLE "3:cjc093_0968"
    INDEX 01 00:23:71
  TRACK 19 AUDIO
    TITLE "0:"
    INDEX 01 00:25:05
  TRACK 20 AUDIO
    TITLE "4:cjc093_0969"
    INDEX 01 00:25:37
  TRACK 21 AUDIO
    TITLE "0:"
    INDEX 01 00:27:73
  TRACK 22 AUDIO
    TITLE "2:cjc093_0970"
    INDEX 01 00:29:07
  TRACK 23 AUDIO
    TITLE "0:"
    INDEX 01 00:30:10
  TRACK 24 AUDIO
    TITLE "3:cjc093_0971"
    INDEX 01 00:30:54
  TRACK 25 AUDIO
    TITLE "0:"
    INDEX 01 00:32:33
  TRACK 26 AUDIO
    TITLE "4:cjc093_0972"
    INDEX 01 00:32:45
  TRACK 27 AUDIO
    TITLE "0:"
    INDEX 01 00:35:29
  TRACK 28 AUDIO
    TITLE "2:cjc093_0973"
    INDEX 01 00:36:56
  TRACK 29 AUDIO
    TITLE "0:"
    INDEX 01 00:37:52
  TRACK 30 AUDIO
    TITLE "3:cjc093_0974"
    INDEX 01 00:38:18
  TRACK 31 AUDIO
    TITLE "0:"
    INDEX 01 00:39:47
  TRACK 32 AUDIO
    TITLE "4:cjc093_0975"
    INDEX 01 00:39:74
  TRACK 33 AUDIO
    TITLE "0:"
    INDEX 01 00:42:25
  TRACK 34 AUDIO
    TITLE "2:cjc093_0976"
    INDEX 01 00:43:37
  TRACK 35 AUDIO
    TITLE "0:"
    INDEX 01 00:44:54
  TRACK 36 AUDIO
    TITLE "3:cjc093_0977"
    INDEX 01 00:45:30
  TRACK 37 AUDIO
    TITLE "0:"
    INDEX 01 00:47:09
  TRACK 38 AUDIO
    TITLE "4:cjc093_0978"
    INDEX 01 00:47:27
  TRACK 39 AUDIO
    TITLE "0:"
    INDEX 01 00:50:05
  TRACK 40 AUDIO
    TITLE "3:cjc093_0979"
    INDEX 01 00:51:16
  TRACK 41 AUDIO
    TITLE "0:"
    INDEX 01 00:52:73
  TRACK 42 AUDIO
    TITLE "4:cjc093_0980"
    INDEX 01 00:53:31
  TRACK 43 AUDIO
    TITLE "0:"
    INDEX 01 00:57:21
  TRACK 44 AUDIO
    TITLE "2:cjc093_0981"
    INDEX 01 00:58:26
  TRACK 45 AUDIO
    TITLE "0:"
    INDEX 01 00:59:39
  TRACK 46 AUDIO
    TITLE "3:cjc093_0982"
    INDEX 01 01:00:23
  TRACK 47 AUDIO
    TITLE "0:"
    INDEX 01 01:01:72
  TRACK 48 AUDIO
    TITLE "4:cjc093_0983"
    INDEX 01 01:02:14
  TRACK 49 AUDIO
    TITLE "0:"
    INDEX 01 01:05:28
  TRACK 50 AUDIO
    TITLE "2:cjc093_0984"
    INDEX 01 01:06:40
  TRACK 51 AUDIO
    TITLE "0:"
    INDEX 01 01:07:49
  TRACK 52 AUDIO
    TITLE "3:cjc093_0985"
    INDEX 01 01:08:17
  TRACK 53 AUDIO
    TITLE "0:"
    INDEX 01 01:09:57
  TRACK 54 AUDIO
    TITLE "4:cjc093_0986"
    INDEX 01 01:10:33
  TRACK 55 AUDIO
    TITLE "0:"
    INDEX 01 01:13:16
  TRACK 56 AUDIO
    TITLE "2:cjc093_0987"
    INDEX 01 01:14:27
  TRACK 57 AUDIO
    TITLE "0:"
    INDEX 01 01:16:40
  TRACK 58 AUDIO
    TITLE "3:cjc093_0988"
    INDEX 01 01:17:02
  TRACK 59 AUDIO
    TITLE "0:"
    INDEX 01 01:19:52
  TRACK 60 AUDIO
    TITLE "4:cjc093_0989"
    INDEX 01 01:20:04
  TRACK 61 AUDIO
    TITLE "0:"
    INDEX 01 01:22:27
